{
  "accessors": [
    {
      "bufferView": 2,
      "componentType": 5126,
      "count": 121,
      "max": [
        25.0,
        25.0,
        0.0
      ],
      "min": [
        -25.0,
        -25.0,
        0.0
      ],
      "type": "VEC3"
    },
    {
      "bufferView": 2,
      "byteOffset": 1452,
      "componentType": 5126,
      "count": 121,
      "max": [
        0.0,
        0.0,
        1.0
      ],
      "min": [
        0.0,
        0.0,
        1.0
      ],
      "type": "VEC3"
    },
    {
      "bufferView": 1,
      "componentType": 5126,
      "count": 121,
      "max": [
        0.5005000233650208,
        0.5005000233650208
      ],
      "min": [
        0.49950000643730164,
        0.49950000643730164
      ],
      "type": "VEC2"
    },
    {
      "bufferView": 0,
      "componentType": 5125,
      "count": 600,
      "type": "SCALAR"
    },
    {
      "bufferView": 2,
      "byteOffset": 2904,
      "componentType": 5126,
      "count": 13072,
      "max": [
        177.78305053710938,
        311.41986083984375,
        -91.80192565917969
      ],
      "min": [
        -183.95877075195313,
        -288.02606201171875,
        -257.9519958496094
      ],
      "type": "VEC3"
    },
    {
      "bufferView": 2,
      "byteOffset": 159768,
      "componentType": 5126,
      "count": 13072,
      "max": [
        0.9994285702705383,
        0.998096764087677,
        0.999999463558197
      ],
      "min": [
        -0.999993085861206,
        -0.999531090259552,
        -0.9999905824661255
      ],
      "type": "VEC3"
    },
    {
      "bufferView": 1,
      "byteOffset": 968,
      "componentType": 5126,
      "count": 13072,
      "max": [
        16.02197265625,
        16.03937530517578
      ],
      "min": [
        -15.026927947998047,
        -15.039374351501465
      ],
      "type": "VEC2"
    },
    {
      "bufferView": 0,
      "byteOffset": 2400,
      "componentType": 5125,
      "count": 60000,
      "type": "SCALAR"
    },
    {
      "bufferView": 2,
      "byteOffset": 316632,
      "componentType": 5126,
      "count": 14408,
      "max": [
        184.12257385253906,
        262.003173828125,
        -79.67414855957031
      ],
      "min": [
        -185.3251953125,
        -269.83416748046875,
        -246.6463165283203
      ],
      "type": "VEC3"
    },
    {
      "bufferView": 2,
      "byteOffset": 489528,
      "componentType": 5126,
      "count": 14408,
      "max": [
        0.9998640418052673,
        0.9999455809593201,
        0.9999998807907104
      ],
      "min": [
        -0.9993154406547546,
        -0.9962895512580872,
        -0.2597608268260956
      ],
      "type": "VEC3"
    },
    {
      "bufferView": 1,
      "byteOffset": 105544,
      "componentType": 5126,
      "count": 14408,
      "max": [
        15.475798606872559,
        16.01599884033203
      ],
      "min": [
        -14.564987182617188,
        -15.015997886657715
      ],
      "type": "VEC2"
    },
    {
      "bufferView": 0,
      "byteOffset": 242400,
      "componentType": 5125,
      "count": 60000,
      "type": "SCALAR"
    },
    {
      "bufferView": 2,
      "byteOffset": 662424,
      "componentType": 5126,
      "count": 14180,
      "max": [
        102.13323974609375,
        206.3140106201172,
        -35.27378845214844
      ],
      "min": [
        -103.27250671386719,
        -209.04849243164063,
        -185.3794403076172
      ],
      "type": "VEC3"
    },
    {
      "bufferView": 2,
      "byteOffset": 832584,
      "componentType": 5126,
      "count": 14180,
      "max": [
        0.9997644424438477,
        0.9999287724494934,
        1.0
      ],
      "min": [
        -0.9999493360519409,
        -0.9938826560974121,
        -0.9999953508377075
      ],
      "type": "VEC3"
    },
    {
      "bufferView": 1,
      "byteOffset": 220808,
      "componentType": 5126,
      "count": 14180,
      "max": [
        11.260333061218262,
        11.714365005493164
      ],
      "min": [
        -10.21431827545166,
        -10.468914985656738
      ],
      "type": "VEC2"
    },
    {
      "bufferView": 0,
      "byteOffset": 482400,
      "componentType": 5125,
      "count": 60000,
      "type": "SCALAR"
    },
    {
      "bufferView": 2,
      "byteOffset": 1002744,
      "componentType": 5126,
      "count": 13845,
      "max": [
        163.3157196044922,
        338.9978332519531,
        -77.91824340820313
      ],
      "min": [
        -164.58294677734375,
        -300.3915100097656,
        -232.95558166503906
      ],
      "type": "VEC3"
    },
    {
      "bufferView": 2,
      "byteOffset": 1168884,
      "componentType": 5126,
      "count": 13845,
      "max": [
        0.9999977350234985,
        0.9971901774406433,
        0.9999998211860657
      ],
      "min": [
        -0.9997955560684204,
        -0.9985265731811523,
        -1.0
      ],
      "type": "VEC3"
    },
    {
      "bufferView": 1,
      "byteOffset": 334248,
      "componentType": 5126,
      "count": 13845,
      "max": [
        17.322978973388672,
        17.508638381958008
      ],
      "min": [
        -16.041589736938477,
        -14.27818775177002
      ],
      "type": "VEC2"
    },
    {
      "bufferView": 0,
      "byteOffset": 722400,
      "componentType": 5125,
      "count": 60000,
      "type": "SCALAR"
    },
    {
      "bufferView": 3,
      "componentType": 5126,
      "count": 6,
      "max": [
        0.20000000298023224
      ],
      "min": [
        0.03333333507180214
      ],
      "type": "SCALAR"
    },
    {
      "bufferView": 4,
      "componentType": 5126,
      "count": 6,
      "max": [
        225.76904296875,
        125.2708740234375,
        224.01962280273438
      ],
      "min": [
        -197.0668487548828,
        90.09923553466797,
        -223.5601806640625
      ],
      "type": "VEC3"
    },
    {
      "bufferView": 3,
      "byteOffset": 24,
      "componentType": 5126,
      "count": 6,
      "max": [
        0.20000000298023224
      ],
      "min": [
        0.03333333507180214
      ],
      "type": "SCALAR"
    },
    {
      "bufferView": 5,
      "componentType": 5126,
      "count": 6,
      "max": [
        0.08065495640039444,
        0.9764957427978516,
        0.03891401365399361,
        0.9492915272712708
      ],
      "min": [
        -0.10713886469602585,
        -0.7029690742492676,
        -0.10868826508522034,
        -0.3391648232936859
      ],
      "type": "VEC4"
    }
  ],
  "animations": [
    {
      "channels": [
        {
          "sampler": 0,
          "target": {
            "node": 50,
            "path": "translation"
          }
        },
        {
          "sampler": 1,
          "target": {
            "node": 50,
            "path": "rotation"
          }
        }
      ],
      "name": "Take 001",
      "samplers": [
        {
          "input": 20,
          "interpolation": "LINEAR",
          "output": 21
        },
        {
          "input": 22,
          "interpolation": "LINEAR",
          "output": 23
        }
      ]
    }
  ],
  "asset": {
    "extras": {
      "author": "eslammagdy.cg (https://sketchfab.com/eslammagdy.cg)",
      "license": "CC-BY-4.0 (http://creativecommons.org/licenses/by/4.0/)",
      "source": "https://sketchfab.com/3d-models/car-covers-fdc83c26ecfa478e9ad669e35f668137",
      "title": "Car Covers"
    },
    "generator": "Sketchfab-14.87.0",
    "version": "2.0"
  },
  "bufferViews": [
    {
      "buffer": 0,
      "byteLength": 962400,
      "name": "floatBufferViews",
      "target": 34963
    },
    {
      "buffer": 0,
      "byteLength": 445008,
      "byteOffset": 962400,
      "byteStride": 8,
      "name": "floatBufferViews",
      "target": 34962
    },
    {
      "buffer": 0,
      "byteLength": 1335024,
      "byteOffset": 1407408,
      "byteStride": 12,
      "name": "floatBufferViews",
      "target": 34962
    },
    {
      "buffer": 0,
      "byteLength": 48,
      "byteOffset": 2742432,
      "name": "floatBufferViews"
    },
    {
      "buffer": 0,
      "byteLength": 72,
      "byteOffset": 2742480,
      "byteStride": 12,
      "name": "floatBufferViews"
    },
    {
      "buffer": 0,
      "byteLength": 96,
      "byteOffset": 2742552,
      "byteStride": 16,
      "name": "floatBufferViews"
    }
  ],
  "buffers": [
    {
      "byteLength": 2742648,
      "uri": "scene.bin"
    }
  ],
  "materials": [
    {
      "doubleSided": true,
      "name": "Plastic_Simple_Shiny_Black_0",
      "pbrMetallicRoughness": {
        "metallicFactor": 0.0,
        "roughnessFactor": 0.6
      }
    }
  ],
  "meshes": [
    {
      "name": "000 land_Plastic_Simple_Shiny_Black #0_0",
      "primitives": [
        {
          "attributes": {
            "NORMAL": 1,
            "POSITION": 0,
            "TEXCOORD_0": 2
          },
          "indices": 3,
          "material": 0,
          "mode": 4
        }
      ]
    },
    {
      "name": "Plane001_Plastic_Simple_Shiny_Black #0_0",
      "primitives": [
        {
          "attributes": {
            "NORMAL": 5,
            "POSITION": 4,
            "TEXCOORD_0": 6
          },
          "indices": 7,
          "material": 0,
          "mode": 4
        }
      ]
    },
    {
      "name": "Plane002_Plastic_Simple_Shiny_Black #0_0",
      "primitives": [
        {
          "attributes": {
            "NORMAL": 9,
            "POSITION": 8,
            "TEXCOORD_0": 10
          },
          "indices": 11,
          "material": 0,
          "mode": 4
        }
      ]
    },
    {
      "name": "Plane003_Plastic_Simple_Shiny_Black #0_0",
      "primitives": [
        {
          "attributes": {
            "NORMAL": 13,
            "POSITION": 12,
            "TEXCOORD_0": 14
          },
          "indices": 15,
          "material": 0,
          "mode": 4
        }
      ]
    },
    {
      "name": "Plane004_Plastic_Simple_Shiny_Black #0_0",
      "primitives": [
        {
          "attributes": {
            "NORMAL": 17,
            "POSITION": 16,
            "TEXCOORD_0": 18
          },
          "indices": 19,
          "material": 0,
          "mode": 4
        }
      ]
    }
  ],
  "nodes": [
    {
      "children": [
        1
      ],
      "matrix": [
        1.0,
        0.0,
        0.0,
        0.0,
        0.0,
        2.220446049250313e-16,
        -1.0,
        0.0,
        0.0,
        1.0,
        2.220446049250313e-16,
        0.0,
        0.0,
        0.0,
        0.0,
        1.0
      ],
      "name": "Sketchfab_model"
    },
    {
      "children": [
        2
      ],
      "matrix": [
        0.009999999776482582,
        0.0,
        0.0,
        0.0,
        0.0,
        0.0,
        0.009999999776482582,
        0.0,
        0.0,
        -0.009999999776482582,
        0.0,
        0.0,
        0.0,
        0.0,
        0.0,
        1.0
      ],
      "name": "7ca0d31bbae9457c98e39a7607f393f9.fbx"
    },
    {
      "children": [
        3
      ],
      "name": "Object_2"
    },
    {
      "children": [
        4,
        7,
        8,
        9,
        10,
        11,
        12,
        13,
        14,
        15,
        16,
        17,
        18,
        19,
        20,
        21,
        22,
        23,
        27,
        31,
        35,
        39,
        43,
        47,
        49,
        50,
        52,
        55,
        58,
        61
      ],
      "name": "RootNode"
    },
    {
      "children": [
        5
      ],
      "name": "000 land",
      "rotation": [
        0.7071066498756409,
        -0.0,
        -0.0,
        0.70710688829422
      ],
      "scale": [
        -1.0,
        -1.0,
        -1.0
      ],
      "translation": [
        0.0,
        4.3060466850874946e-05,
        -2.1510571102112408e-15
      ]
    },
    {
      "children": [
        6
      ],
      "matrix": [
        1.0,
        0.0,
        -0.0,
        0.0,
        0.0,
        1.0,
        0.0,
        0.0,
        0.0,
        0.0,
        1.0,
        0.0,
        0.0,
        -1.8946382657203387e-11,
        8.146034815581515e-06,
        1.0
      ],
      "name": "Object_5"
    },
    {
      "mesh": 0,
      "name": "000 land_Plastic_Simple_Shiny_Black #0_0"
    },
    {
      "name": "VRayLight001",
      "rotation": [
        -0.28907185792922974,
        0.40192365646362305,
        0.13537637889385223,
        0.8582354784011841
      ],
      "translation": [
        684.4642944335938,
        677.0582275390625,
        570.5029296875
      ]
    },
    {
      "name": "VRayLight001.Target",
      "rotation": [
        -0.6532815098762512,
        0.27059802412986755,
        0.27059802412986755,
        0.6532815098762512
      ]
    },
    {
      "name": "VRayLight002",
      "rotation": [
        -0.2896527349948883,
        -0.4010610580444336,
        -0.13532324135303497,
        0.8584514856338501
      ],
      "translation": [
        -681.9060668945313,
        677.0582275390625,
        570.5029296875
      ]
    },
    {
      "name": "VRayLight002.Target",
      "rotation": [
        -0.6532815098762512,
        0.27059802412986755,
        0.27059802412986755,
        0.6532815098762512
      ]
    },
    {
      "name": "VRayLight003",
      "rotation": [
        -0.1647142916917801,
        0.6830126047134399,
        0.16238346695899963,
        0.692816436290741
      ],
      "translation": [
        920.8397827148438,
        464.13043212890625,
        13.1240234375
      ]
    },
    {
      "name": "VRayLight003.Target",
      "rotation": [
        -0.6532815098762512,
        0.27059802412986755,
        0.27059802412986755,
        0.6532815098762512
      ]
    },
    {
      "name": "VRayLight004",
      "rotation": [
        -0.16266143321990967,
        -0.6835587620735168,
        -0.16039299964904785,
        0.6932263374328613
      ],
      "translation": [
        -934.4647216796875,
        464.13043212890625,
        13.1240234375
      ]
    },
    {
      "name": "VRayLight004.Target",
      "rotation": [
        -0.6532815098762512,
        0.27059802412986755,
        0.27059802412986755,
        0.6532815098762512
      ]
    },
    {
      "name": "VRayLight006",
      "rotation": [
        -0.12404928356409073,
        0.8711017966270447,
        0.28320345282554626,
        0.3815615475177765
      ],
      "translation": [
        684.4642944335938,
        677.0582275390625,
        -631.407958984375
      ]
    },
    {
      "name": "VRayLight006.Target",
      "rotation": [
        -0.6532815098762512,
        0.27059802412986755,
        0.27059802412986755,
        0.6532815098762512
      ]
    },
    {
      "name": "VRayLight007",
      "rotation": [
        0.12396784126758575,
        0.8713213205337524,
        0.28373774886131287,
        -0.38068893551826477
      ],
      "translation": [
        -681.9060668945313,
        677.0582275390625,
        -631.407958984375
      ]
    },
    {
      "name": "VRayLight007.Target",
      "rotation": [
        -0.6532815098762512,
        0.27059802412986755,
        0.27059802412986755,
        0.6532815098762512
      ]
    },
    {
      "name": "VRayLight008",
      "rotation": [
        -0.0011805088724941015,
        0.9170642495155334,
        0.39872848987579346,
        0.002715136855840683
      ],
      "translation": [
        3.73883056640625,
        677.0582275390625,
        -631.407958984375
      ]
    },
    {
      "name": "VRayLight008.Target",
      "rotation": [
        -0.6532815098762512,
        0.27059802412986755,
        0.27059802412986755,
        0.6532815098762512
      ]
    },
    {
      "name": "VRayLight009",
      "rotation": [
        -0.4216824471950531,
        -0.001123590162023902,
        -0.0005225277855060995,
        0.9067427515983582
      ],
      "translation": [
        -1.41387939453125,
        677.0582275390625,
        570.5029296875
      ]
    },
    {
      "name": "VRayLight009.Target",
      "rotation": [
        -0.6532815098762512,
        0.27059802412986755,
        0.27059802412986755,
        0.6532815098762512
      ]
    },
    {
      "children": [
        24,
        25
      ],
      "name": "Group005",
      "rotation": [
        -0.7071068286895752,
        -0.0,
        0.0,
        0.7071068286895752
      ],
      "translation": [
        -96.3990478515625,
        67.08065032958984,
        88.99732971191406
      ]
    },
    {
      "name": "Camera001.Target",
      "rotation": [
        0.6159378886222839,
        -0.2614499628543854,
        -0.29036980867385864,
        0.6840685606002808
      ],
      "translation": [
        98.1451416015625,
        90.5690689086914,
        -22.738365173339844
      ]
    },
    {
      "children": [
        26
      ],
      "name": "Camera001",
      "rotation": [
        0.7359724640846252,
        -0.32773932814598083,
        -0.24098743498325348,
        0.5411622524261475
      ],
      "translation": [
        -88.33172607421875,
        -77.28701782226563,
        -101.10382843017578
      ]
    },
    {
      "name": "Object_26"
    },
    {
      "children": [
        28,
        30
      ],
      "name": "Group006",
      "rotation": [
        -0.6461463570594788,
        0.287219375371933,
        0.287219375371933,
        0.6461463570594788
      ],
      "translation": [
        1.4772411584854126,
        67.08065032958984,
        131.19114685058594
      ]
    },
    {
      "children": [
        29
      ],
      "name": "Camera002",
      "rotation": [
        0.7250983715057373,
        -0.32289692759513855,
        -0.24743802845478058,
        0.5556477308273315
      ],
      "translation": [
        -88.33172607421875,
        -77.28703308105469,
        -90.31168365478516
      ]
    },
    {
      "name": "Object_29"
    },
    {
      "name": "Camera002.Target",
      "rotation": [
        0.6159378886222839,
        -0.2614499628543854,
        -0.29036980867385864,
        0.6840685606002808
      ],
      "translation": [
        98.14513397216797,
        90.56905364990234,
        -22.738365173339844
      ]
    },
    {
      "children": [
        32,
        34
      ],
      "name": "Group007",
      "rotation": [
        -0.4870472550392151,
        0.5126255750656128,
        0.5126255750656128,
        0.4870472550392151
      ],
      "translation": [
        93.81073760986328,
        67.08065032958984,
        91.7215805053711
      ]
    },
    {
      "children": [
        33
      ],
      "name": "Camera003",
      "rotation": [
        0.7250983715057373,
        -0.32289689779281616,
        -0.2474379986524582,
        0.5556477308273315
      ],
      "translation": [
        -88.33172607421875,
        -77.28701782226563,
        -90.3116683959961
      ]
    },
    {
      "name": "Object_33"
    },
    {
      "name": "Camera003.Target",
      "rotation": [
        0.6159378886222839,
        -0.261449933052063,
        -0.29036980867385864,
        0.6840685606002808
      ],
      "translation": [
        98.1451416015625,
        90.5690689086914,
        -22.738365173339844
      ]
    },
    {
      "children": [
        36,
        38
      ],
      "name": "Group008",
      "rotation": [
        -0.012764125131070614,
        0.7069916129112244,
        0.7069916129112244,
        0.012764125131070614
      ],
      "translation": [
        99.54869842529297,
        67.08065032958984,
        -85.45968627929688
      ]
    },
    {
      "children": [
        37
      ],
      "name": "Camera004",
      "rotation": [
        0.7250983119010925,
        -0.32289692759513855,
        -0.24743804335594177,
        0.5556477308273315
      ],
      "translation": [
        -88.33171844482422,
        -77.2870101928711,
        -90.3116683959961
      ]
    },
    {
      "name": "Object_37"
    },
    {
      "name": "Camera004.Target",
      "rotation": [
        0.6159378886222839,
        -0.2614499628543854,
        -0.29036980867385864,
        0.6840685606002808
      ],
      "translation": [
        98.1451416015625,
        90.56906127929688,
        -22.738365173339844
      ]
    },
    {
      "children": [
        40,
        42
      ],
      "name": "Group009",
      "rotation": [
        0.2872193455696106,
        0.646146297454834,
        0.646146297454834,
        -0.2872193455696106
      ],
      "translation": [
        -1.477268934249878,
        67.08065032958984,
        -131.191162109375
      ]
    },
    {
      "children": [
        41
      ],
      "name": "Camera005",
      "rotation": [
        0.7250983119010925,
        -0.32289689779281616,
        -0.24743802845478058,
        0.5556477308273315
      ],
      "translation": [
        -88.33171844482422,
        -77.28701782226563,
        -90.3116683959961
      ]
    },
    {
      "name": "Object_41"
    },
    {
      "name": "Camera005.Target",
      "rotation": [
        0.6159378886222839,
        -0.2614499628543854,
        -0.29036983847618103,
        0.6840685606002808
      ],
      "translation": [
        98.14514923095703,
        90.5690689086914,
        -22.738365173339844
      ]
    },
    {
      "children": [
        44,
        46
      ],
      "name": "Group010",
      "rotation": [
        -0.5531238317489624,
        -0.4405156373977661,
        -0.4405156373977661,
        0.5531238317489624
      ],
      "translation": [
        -108.31285095214844,
        67.08065032958984,
        -74.03803253173828
      ]
    },
    {
      "children": [
        45
      ],
      "name": "Camera006",
      "rotation": [
        0.7250983715057373,
        -0.32289689779281616,
        -0.24743802845478058,
        0.5556477308273315
      ],
      "translation": [
        -88.33169555664063,
        -77.2870101928711,
        -90.3116683959961
      ]
    },
    {
      "name": "Object_45"
    },
    {
      "name": "Camera006.Target",
      "rotation": [
        0.6159378886222839,
        -0.2614499628543854,
        -0.29036980867385864,
        0.6840685606002808
      ],
      "translation": [
        98.1451416015625,
        90.56905364990234,
        -22.738365173339844
      ]
    },
    {
      "children": [
        48
      ],
      "name": "Camera007",
      "rotation": [
        -0.1028796061873436,
        -0.4277695119380951,
        -0.049080125987529755,
        0.896671712398529
      ],
      "translation": [
        -153.8787841796875,
        136.73736572265625,
        221.452392578125
      ]
    },
    {
      "name": "Object_48"
    },
    {
      "name": "Camera007.Target",
      "rotation": [
        -0.10287941992282867,
        -0.4277695417404175,
        -0.04908003658056259,
        0.896671712398529
      ],
      "translation": [
        50.90397644042969,
        75.47113800048828,
        55.671295166015625
      ]
    },
    {
      "children": [
        51
      ],
      "name": "AniCam",
      "rotation": [
        -0.005256196949630976,
        0.31320518255233765,
        -0.02684333175420761,
        0.9492915868759155
      ],
      "translation": [
        -197.0668487548828,
        90.09923553466797,
        151.76492309570313
      ]
    },
    {
      "name": "Object_51"
    },
    {
      "children": [
        53
      ],
      "name": "Plane001",
      "rotation": [
        -0.7071068286895752,
        -0.0,
        0.0,
        0.7071068286895752
      ],
      "translation": [
        -0.3603057861328125,
        -0.023956298828125,
        -10.900588035583496
      ]
    },
    {
      "children": [
        54
      ],
      "matrix": [
        1.0,
        0.0,
        -0.0,
        0.0,
        0.0,
        1.0,
        0.0,
        0.0,
        0.0,
        0.0,
        1.0,
        0.0,
        3.087860107421875,
        -11.6968994140625,
        257.9519958496094,
        1.0
      ],
      "name": "Object_53"
    },
    {
      "mesh": 1,
      "name": "Plane001_Plastic_Simple_Shiny_Black #0_0"
    },
    {
      "children": [
        56
      ],
      "name": "Plane002",
      "rotation": [
        -0.7071068286895752,
        -0.0,
        0.0,
        0.7071068286895752
      ],
      "translation": [
        -497.78802490234375,
        0.8050994873046875,
        -2.9179577827453613
      ]
    },
    {
      "children": [
        57
      ],
      "matrix": [
        1.0,
        0.0,
        -0.0,
        0.0,
        0.0,
        1.0,
        0.0,
        0.0,
        0.0,
        0.0,
        1.0,
        0.0,
        0.601318359375,
        3.915496826171875,
        246.6463165283203,
        1.0
      ],
      "name": "Object_56"
    },
    {
      "mesh": 2,
      "name": "Plane002_Plastic_Simple_Shiny_Black #0_0"
    },
    {
      "children": [
        59
      ],
      "name": "Plane003",
      "rotation": [
        -0.7071068286895752,
        -0.0,
        0.0,
        0.7071068286895752
      ],
      "scale": [
        1.60276198387146,
        1.0802240371704102,
        1.0
      ],
      "translation": [
        -961.3663330078125,
        0.4435272216796875,
        9.358205795288086
      ]
    },
    {
      "children": [
        60
      ],
      "matrix": [
        1.0,
        0.0,
        -0.0,
        0.0,
        0.0,
        1.0,
        0.0,
        0.0,
        0.0,
        0.0,
        1.0,
        0.0,
        0.5696191787719727,
        1.3672406673431396,
        185.37942504882813,
        1.0
      ],
      "name": "Object_59"
    },
    {
      "mesh": 3,
      "name": "Plane003_Plastic_Simple_Shiny_Black #0_0"
    },
    {
      "children": [
        62
      ],
      "name": "Plane004",
      "rotation": [
        -0.7071068286895752,
        -0.0,
        0.0,
        0.7071068286895752
      ],
      "scale": [
        1.2174290418624878,
        1.0,
        1.0
      ],
      "translation": [
        473.6282653808594,
        -1.921173095703125,
        -7.911865234375
      ]
    },
    {
      "children": [
        63
      ],
      "matrix": [
        1.0,
        0.0,
        -0.0,
        0.0,
        0.0,
        1.0,
        0.0,
        0.0,
        0.0,
        0.0,
        1.0,
        0.0,
        0.6336243748664856,
        -19.30316162109375,
        232.95558166503906,
        1.0
      ],
      "name": "Object_62"
    },
    {
      "mesh": 4,
      "name": "Plane004_Plastic_Simple_Shiny_Black #0_0"
    }
  ],
  "scene": 0,
  "scenes": [
    {
      "name": "Sketchfab_Scene",
      "nodes": [
        0
      ]
    }
  ]
}
