{
  "accessors": [
    {
      "bufferView": 2,
      "componentType": 5126,
      "count": 4,
      "max": [
        300.0,
        500.0,
        0.0
      ],
      "min": [
        -300.0,
        -500.0,
        0.0
      ],
      "type": "VEC3"
    },
    {
      "bufferView": 2,
      "byteOffset": 48,
      "componentType": 5126,
      "count": 4,
      "max": [
        0.0,
        0.0,
        1.0
      ],
      "min": [
        0.0,
        0.0,
        1.0
      ],
      "type": "VEC3"
    },
    {
      "bufferView": 1,
      "componentType": 5126,
      "count": 4,
      "max": [
        0.9995005130767822,
        0.9995005130767822
      ],
      "min": [
        0.0004995167255401611,
        0.0004994869232177734
      ],
      "type": "VEC2"
    },
    {
      "bufferView": 0,
      "componentType": 5125,
      "count": 6,
      "type": "SCALAR"
    },
    {
      "bufferView": 2,
      "byteOffset": 96,
      "componentType": 5126,
      "count": 1504,
      "max": [
        294.98114013671875,
        -1.0079011917114258,
        174.90823364257813
      ],
      "min": [
        -258.7047119140625,
        -75.82555389404297,
        -174.90823364257813
      ],
      "type": "VEC3"
    },
    {
      "bufferView": 2,
      "byteOffset": 18144,
      "componentType": 5126,
      "count": 1504,
      "max": [
        0.9908203482627869,
        0.9896634817123413,
        1.0
      ],
      "min": [
        -0.9908894896507263,
        -0.9919762015342712,
        -1.0
      ],
      "type": "VEC3"
    },
    {
      "bufferView": 0,
      "byteOffset": 24,
      "componentType": 5125,
      "count": 5064,
      "type": "SCALAR"
    },
    {
      "bufferView": 2,
      "byteOffset": 36192,
      "componentType": 5126,
      "count": 336,
      "max": [
        310.9508972167969,
        14.961852073669434,
        178.41091918945313
      ],
      "min": [
        -274.67449951171875,
        -91.79544067382813,
        -178.4106903076172
      ],
      "type": "VEC3"
    },
    {
      "bufferView": 2,
      "byteOffset": 40224,
      "componentType": 5126,
      "count": 336,
      "max": [
        0.6025682091712952,
        0.6025694012641907,
        0.9947434663772583
      ],
      "min": [
        -0.6025687456130981,
        -0.6025682091712952,
        -0.9947434663772583
      ],
      "type": "VEC3"
    },
    {
      "bufferView": 1,
      "byteOffset": 32,
      "componentType": 5126,
      "count": 336,
      "max": [
        0.8720768690109253,
        0.7810826897621155
      ],
      "min": [
        0.11666600406169891,
        0.04318251088261604
      ],
      "type": "VEC2"
    },
    {
      "bufferView": 0,
      "byteOffset": 20280,
      "componentType": 5125,
      "count": 1152,
      "type": "SCALAR"
    },
    {
      "bufferView": 2,
      "byteOffset": 44256,
      "componentType": 5126,
      "count": 130,
      "max": [
        313.8248596191406,
        -38.416717529296875,
        124.35040283203125
      ],
      "min": [
        -277.5484619140625,
        -94.66936492919922,
        -124.35013580322266
      ],
      "type": "VEC3"
    },
    {
      "bufferView": 2,
      "byteOffset": 45816,
      "componentType": 5126,
      "count": 130,
      "max": [
        0.8684767484664917,
        2.270563072670484e-06,
        1.0
      ],
      "min": [
        -0.868476927280426,
        -0.8346282839775085,
        -1.0
      ],
      "type": "VEC3"
    },
    {
      "bufferView": 1,
      "byteOffset": 2720,
      "componentType": 5126,
      "count": 130,
      "max": [
        0.9778523445129395,
        0.9995003938674927
      ],
      "min": [
        0.5631036758422852,
        0.7947819232940674
      ],
      "type": "VEC2"
    },
    {
      "bufferView": 0,
      "byteOffset": 24888,
      "componentType": 5125,
      "count": 420,
      "type": "SCALAR"
    },
    {
      "bufferView": 2,
      "byteOffset": 47376,
      "componentType": 5126,
      "count": 768,
      "max": [
        316.0615234375,
        20.072437286376953,
        174.4591827392578
      ],
      "min": [
        -279.78509521484375,
        -96.90602111816406,
        -174.4589385986328
      ],
      "type": "VEC3"
    },
    {
      "bufferView": 2,
      "byteOffset": 56592,
      "componentType": 5126,
      "count": 768,
      "max": [
        0.9811835289001465,
        0.9811834692955017,
        0.7980687022209167
      ],
      "min": [
        -0.9811835289001465,
        -0.9811835289001465,
        -0.7980684041976929
      ],
      "type": "VEC3"
    },
    {
      "bufferView": 1,
      "byteOffset": 3760,
      "componentType": 5126,
      "count": 768,
      "max": [
        0.288117915391922,
        0.9963960647583008
      ],
      "min": [
        0.0004994869232177734,
        0.8289116024971008
      ],
      "type": "VEC2"
    },
    {
      "bufferView": 0,
      "byteOffset": 26568,
      "componentType": 5125,
      "count": 1728,
      "type": "SCALAR"
    },
    {
      "bufferView": 2,
      "byteOffset": 65808,
      "componentType": 5126,
      "count": 232,
      "max": [
        396.99847412109375,
        40.715171813964844,
        164.99925231933594
      ],
      "min": [
        -394.5433654785156,
        -50.53169250488281,
        -164.99925231933594
      ],
      "type": "VEC3"
    },
    {
      "bufferView": 2,
      "byteOffset": 68592,
      "componentType": 5126,
      "count": 232,
      "max": [
        0.9999956488609314,
        0.7060704231262207,
        0.7304622530937195
      ],
      "min": [
        -0.9775258302688599,
        -0.7096120715141296,
        -0.7304622530937195
      ],
      "type": "VEC3"
    },
    {
      "bufferView": 1,
      "byteOffset": 9904,
      "componentType": 5126,
      "count": 232,
      "max": [
        0.6855493783950806,
        0.6495206356048584
      ],
      "min": [
        0.010453862138092518,
        0.26568910479545593
      ],
      "type": "VEC2"
    },
    {
      "bufferView": 0,
      "byteOffset": 33480,
      "componentType": 5125,
      "count": 384,
      "type": "SCALAR"
    },
    {
      "bufferView": 2,
      "byteOffset": 71376,
      "componentType": 5126,
      "count": 24,
      "max": [
        -339.9813232421875,
        0.9638500809669495,
        150.3528289794922
      ],
      "min": [
        -364.7662658691406,
        -13.319770812988281,
        -150.3528289794922
      ],
      "type": "VEC3"
    },
    {
      "bufferView": 2,
      "byteOffset": 71664,
      "componentType": 5126,
      "count": 24,
      "max": [
        -0.43496057391166687,
        0.8997434377670288,
        0.12037737667560577
      ],
      "min": [
        -0.5532735586166382,
        0.8304835557937622,
        -0.12037736177444458
      ],
      "type": "VEC3"
    },
    {
      "bufferView": 1,
      "byteOffset": 11760,
      "componentType": 5126,
      "count": 24,
      "max": [
        0.7256903648376465,
        0.9959598183631897
      ],
      "min": [
        0.008781212382018566,
        0.6679590940475464
      ],
      "type": "VEC2"
    },
    {
      "bufferView": 0,
      "byteOffset": 35016,
      "componentType": 5125,
      "count": 60,
      "type": "SCALAR"
    },
    {
      "bufferView": 2,
      "byteOffset": 71952,
      "componentType": 5126,
      "count": 5848,
      "max": [
        377.77490234375,
        96.52703857421875,
        181.4085693359375
      ],
      "min": [
        -396.4560241699219,
        -53.005279541015625,
        -181.4085693359375
      ],
      "type": "VEC3"
    },
    {
      "bufferView": 2,
      "byteOffset": 142128,
      "componentType": 5126,
      "count": 5848,
      "max": [
        1.0,
        1.0,
        1.0
      ],
      "min": [
        -1.0,
        -1.0,
        -1.0
      ],
      "type": "VEC3"
    },
    {
      "bufferView": 0,
      "byteOffset": 35256,
      "componentType": 5125,
      "count": 7578,
      "type": "SCALAR"
    },
    {
      "bufferView": 2,
      "byteOffset": 212304,
      "componentType": 5126,
      "count": 2867,
      "max": [
        398.428466796875,
        91.45018768310547,
        182.21453857421875
      ],
      "min": [
        -394.88037109375,
        -77.33319091796875,
        -182.21453857421875
      ],
      "type": "VEC3"
    },
    {
      "bufferView": 2,
      "byteOffset": 246708,
      "componentType": 5126,
      "count": 2867,
      "max": [
        1.0,
        1.0,
        1.0
      ],
      "min": [
        -0.9973912239074707,
        -1.0,
        -1.0
      ],
      "type": "VEC3"
    },
    {
      "bufferView": 1,
      "byteOffset": 11952,
      "componentType": 5126,
      "count": 2867,
      "max": [
        0.0,
        0.0
      ],
      "min": [
        0.0,
        0.0
      ],
      "type": "VEC2"
    },
    {
      "bufferView": 0,
      "byteOffset": 65568,
      "componentType": 5125,
      "count": 3942,
      "type": "SCALAR"
    },
    {
      "bufferView": 2,
      "byteOffset": 281112,
      "componentType": 5126,
      "count": 82,
      "max": [
        133.0033416748047,
        96.00324249267578,
        160.37672424316406
      ],
      "min": [
        -215.37164306640625,
        41.08302307128906,
        -160.37672424316406
      ],
      "type": "VEC3"
    },
    {
      "bufferView": 2,
      "byteOffset": 282096,
      "componentType": 5126,
      "count": 82,
      "max": [
        1.0,
        0.96263188123703,
        0.5528602004051208
      ],
      "min": [
        -0.29636889696121216,
        -0.430809885263443,
        -0.5528602004051208
      ],
      "type": "VEC3"
    },
    {
      "bufferView": 0,
      "byteOffset": 81336,
      "componentType": 5125,
      "count": 186,
      "type": "SCALAR"
    },
    {
      "bufferView": 2,
      "byteOffset": 283080,
      "componentType": 5126,
      "count": 1802,
      "max": [
        406.73162841796875,
        62.00243377685547,
        174.8114471435547
      ],
      "min": [
        -152.87403869628906,
        -44.43474578857422,
        -174.8114471435547
      ],
      "type": "VEC3"
    },
    {
      "bufferView": 2,
      "byteOffset": 304704,
      "componentType": 5126,
      "count": 1802,
      "max": [
        0.9999999403953552,
        0.9503878951072693,
        0.996921956539154
      ],
      "min": [
        -0.9999999403953552,
        -0.9503878951072693,
        -0.996921956539154
      ],
      "type": "VEC3"
    },
    {
      "bufferView": 0,
      "byteOffset": 82080,
      "componentType": 5125,
      "count": 1890,
      "type": "SCALAR"
    },
    {
      "bufferView": 2,
      "byteOffset": 326328,
      "componentType": 5126,
      "count": 5436,
      "max": [
        403.84796142578125,
        104.29737854003906,
        183.71151733398438
      ],
      "min": [
        -392.3533630371094,
        -77.33319091796875,
        -183.71151733398438
      ],
      "type": "VEC3"
    },
    {
      "bufferView": 2,
      "byteOffset": 391560,
      "componentType": 5126,
      "count": 5436,
      "max": [
        0.9999988675117493,
        0.9999189972877502,
        1.0
      ],
      "min": [
        -0.9973912239074707,
        -0.9980236887931824,
        -1.0
      ],
      "type": "VEC3"
    },
    {
      "bufferView": 0,
      "byteOffset": 89640,
      "componentType": 5125,
      "count": 7650,
      "type": "SCALAR"
    }
  ],
  "asset": {
    "extras": {
      "author": "ｍononofu (https://sketchfab.com/guest248)",
      "license": "CC-BY-4.0 (http://creativecommons.org/licenses/by/4.0/)",
      "source": "https://sketchfab.com/3d-models/lp-0940a3d1f5e44217afb698518ab2749d",
      "title": "LP"
    },
    "generator": "Sketchfab-12.66.0",
    "version": "2.0"
  },
  "bufferViews": [
    {
      "buffer": 0,
      "byteLength": 120240,
      "name": "floatBufferViews",
      "target": 34963
    },
    {
      "buffer": 0,
      "byteLength": 34888,
      "byteOffset": 120240,
      "byteStride": 8,
      "name": "floatBufferViews",
      "target": 34962
    },
    {
      "buffer": 0,
      "byteLength": 456792,
      "byteOffset": 155128,
      "byteStride": 12,
      "name": "floatBufferViews",
      "target": 34962
    }
  ],
  "buffers": [
    {
      "byteLength": 611920,
      "uri": "scene.bin"
    }
  ],
  "images": [
    {
      "uri": "textures/shadow_baseColor.png"
    },
    {
      "uri": "textures/tire_side_baseColor.jpeg"
    },
    {
      "uri": "textures/r_light_baseColor.jpeg"
    },
    {
      "uri": "textures/black_baseColor.jpeg"
    }
  ],
  "materials": [
    {
      "alphaMode": "BLEND",
      "doubleSided": true,
      "name": "shadow",
      "pbrMetallicRoughness": {
        "baseColorTexture": {
          "index": 0
        },
        "metallicFactor": 0.0
      }
    },
    {
      "doubleSided": true,
      "name": "wheel",
      "pbrMetallicRoughness": {
        "baseColorFactor": [
          0.878431,
          0.607843,
          0.317647,
          1.0
        ],
        "roughnessFactor": 0.0
      }
    },
    {
      "doubleSided": true,
      "emissiveFactor": [
        0.5,
        0.5,
        0.5
      ],
      "emissiveTexture": {
        "index": 1
      },
      "name": "tire_side",
      "pbrMetallicRoughness": {
        "baseColorTexture": {
          "index": 1
        },
        "metallicFactor": 0.0,
        "roughnessFactor": 0.0
      }
    },
    {
      "doubleSided": true,
      "emissiveFactor": [
        0.5,
        0.5,
        0.5
      ],
      "emissiveTexture": {
        "index": 1
      },
      "name": "tire_bk",
      "pbrMetallicRoughness": {
        "baseColorTexture": {
          "index": 1
        },
        "metallicFactor": 0.0
      }
    },
    {
      "doubleSided": true,
      "emissiveFactor": [
        0.8,
        0.8,
        0.8
      ],
      "emissiveTexture": {
        "index": 1
      },
      "name": "tire_tred",
      "pbrMetallicRoughness": {
        "baseColorTexture": {
          "index": 1
        },
        "metallicFactor": 0.0
      }
    },
    {
      "doubleSided": true,
      "emissiveFactor": [
        0.5,
        0.5,
        0.5
      ],
      "emissiveTexture": {
        "index": 2
      },
      "name": "r_light",
      "pbrMetallicRoughness": {
        "baseColorTexture": {
          "index": 2
        },
        "metallicFactor": 0.0,
        "roughnessFactor": 0.0
      }
    },
    {
      "doubleSided": true,
      "emissiveFactor": [
        0.5,
        0.5,
        0.5
      ],
      "emissiveTexture": {
        "index": 3
      },
      "name": "f_light",
      "pbrMetallicRoughness": {
        "baseColorTexture": {
          "index": 3
        },
        "metallicFactor": 0.0,
        "roughnessFactor": 0.0
      }
    },
    {
      "doubleSided": true,
      "name": "black_gloss",
      "pbrMetallicRoughness": {
        "baseColorFactor": [
          0.016789178,
          0.016789178,
          0.016789178,
          1.0
        ],
        "metallicFactor": 0.0,
        "roughnessFactor": 0.4
      }
    },
    {
      "doubleSided": true,
      "name": "black",
      "pbrMetallicRoughness": {
        "baseColorTexture": {
          "index": 4
        },
        "metallicFactor": 0.0
      }
    },
    {
      "doubleSided": true,
      "name": "window",
      "pbrMetallicRoughness": {
        "baseColorFactor": [
          0.0214270415,
          0.0707133569,
          0.0925066477,
          1.0
        ],
        "metallicFactor": 0.0,
        "roughnessFactor": 0.0
      }
    },
    {
      "doubleSided": true,
      "name": "chrom",
      "pbrMetallicRoughness": {
        "baseColorFactor": [
          0.439216,
          0.439216,
          0.439216,
          1.0
        ],
        "roughnessFactor": 0.0
      }
    },
    {
      "doubleSided": true,
      "name": "body",
      "pbrMetallicRoughness": {
        "baseColorFactor": [
          0.784314,
          0.0,
          0.0,
          1.0
        ],
        "metallicFactor": 0.0,
        "roughnessFactor": 0.0
      }
    }
  ],
  "meshes": [
    {
      "name": "Plane01_shadow_0",
      "primitives": [
        {
          "attributes": {
            "NORMAL": 1,
            "POSITION": 0,
            "TEXCOORD_0": 2
          },
          "indices": 3,
          "material": 0,
          "mode": 4
        }
      ]
    },
    {
      "name": "wheel_wheel_0",
      "primitives": [
        {
          "attributes": {
            "NORMAL": 5,
            "POSITION": 4
          },
          "indices": 6,
          "material": 1,
          "mode": 4
        }
      ]
    },
    {
      "name": "tire_tire_side_0",
      "primitives": [
        {
          "attributes": {
            "NORMAL": 8,
            "POSITION": 7,
            "TEXCOORD_0": 9
          },
          "indices": 10,
          "material": 2,
          "mode": 4
        }
      ]
    },
    {
      "name": "tire_tire_bk_0",
      "primitives": [
        {
          "attributes": {
            "NORMAL": 12,
            "POSITION": 11,
            "TEXCOORD_0": 13
          },
          "indices": 14,
          "material": 3,
          "mode": 4
        }
      ]
    },
    {
      "name": "tire_tire_tred_0",
      "primitives": [
        {
          "attributes": {
            "NORMAL": 16,
            "POSITION": 15,
            "TEXCOORD_0": 17
          },
          "indices": 18,
          "material": 4,
          "mode": 4
        }
      ]
    },
    {
      "name": "map_r_light_0",
      "primitives": [
        {
          "attributes": {
            "NORMAL": 20,
            "POSITION": 19,
            "TEXCOORD_0": 21
          },
          "indices": 22,
          "material": 5,
          "mode": 4
        }
      ]
    },
    {
      "name": "lens_f_light_0",
      "primitives": [
        {
          "attributes": {
            "NORMAL": 24,
            "POSITION": 23,
            "TEXCOORD_0": 25
          },
          "indices": 26,
          "material": 6,
          "mode": 4
        }
      ]
    },
    {
      "name": "black_gloss_black_gloss_0",
      "primitives": [
        {
          "attributes": {
            "NORMAL": 28,
            "POSITION": 27
          },
          "indices": 29,
          "material": 7,
          "mode": 4
        }
      ]
    },
    {
      "name": "black_mat_black_0",
      "primitives": [
        {
          "attributes": {
            "NORMAL": 31,
            "POSITION": 30,
            "TEXCOORD_0": 32
          },
          "indices": 33,
          "material": 8,
          "mode": 4
        }
      ]
    },
    {
      "name": "window_window_0",
      "primitives": [
        {
          "attributes": {
            "NORMAL": 35,
            "POSITION": 34
          },
          "indices": 36,
          "material": 9,
          "mode": 4
        }
      ]
    },
    {
      "name": "silver_env_chrom_0",
      "primitives": [
        {
          "attributes": {
            "NORMAL": 38,
            "POSITION": 37
          },
          "indices": 39,
          "material": 10,
          "mode": 4
        }
      ]
    },
    {
      "name": "body_body_0",
      "primitives": [
        {
          "attributes": {
            "NORMAL": 41,
            "POSITION": 40
          },
          "indices": 42,
          "material": 11,
          "mode": 4
        }
      ]
    }
  ],
  "nodes": [
    {
      "children": [
        1
      ],
      "matrix": [
        1.0,
        0.0,
        0.0,
        0.0,
        0.0,
        2.220446049250313e-16,
        -1.0,
        0.0,
        0.0,
        1.0,
        2.220446049250313e-16,
        0.0,
        0.0,
        0.0,
        0.0,
        1.0
      ],
      "name": "Sketchfab_model"
    },
    {
      "children": [
        2
      ],
      "matrix": [
        1.0,
        0.0,
        0.0,
        0.0,
        0.0,
        0.0,
        1.0,
        0.0,
        0.0,
        -1.0,
        0.0,
        0.0,
        0.0,
        0.0,
        0.0,
        1.0
      ],
      "name": "a6de35aaa1c94e3990243926df0e2091.fbx"
    },
    {
      "children": [
        3
      ],
      "name": "Object_2"
    },
    {
      "children": [
        4,
        6,
        8,
        13,
        15,
        17,
        19,
        21,
        23,
        25
      ],
      "name": "RootNode"
    },
    {
      "children": [
        5
      ],
      "name": "Plane01",
      "rotation": [
        -0.7071066498756409,
        -8.429367426288081e-08,
        1.461109633282831e-07,
        0.7071069478988647
      ],
      "scale": [
        0.03937007859349251,
        0.03937007859349251,
        0.03937007859349251
      ],
      "translation": [
        1.4007091522216797e-06,
        -4.3298187255859375,
        0.2841033935546875
      ]
    },
    {
      "mesh": 0,
      "name": "Plane01_shadow_0"
    },
    {
      "children": [
        7
      ],
      "name": "wheel",
      "rotation": [
        1.1941843069962488e-07,
        0.7071065902709961,
        -1.1941837385620602e-07,
        0.7071069478988647
      ],
      "scale": [
        0.03937007859349251,
        0.03937007859349251,
        0.03937007859349251
      ],
      "translation": [
        -1.7434358596801758e-06,
        -0.530792236328125,
        0.2262725830078125
      ]
    },
    {
      "mesh": 1,
      "name": "wheel_wheel_0"
    },
    {
      "children": [
        9
      ],
      "name": "tire",
      "rotation": [
        1.1941843069962488e-07,
        0.7071065902709961,
        -1.1941837385620602e-07,
        0.7071069478988647
      ],
      "scale": [
        0.03937007859349251,
        0.03937007859349251,
        0.03937007859349251
      ]
    },
    {
      "children": [
        10,
        11,
        12
      ],
      "matrix": [
        1.0,
        0.0,
        -0.0,
        0.0,
        0.0,
        1.0,
        0.0,
        0.0,
        0.0,
        0.0,
        1.0,
        0.0,
        -5.747335433959961,
        -13.482124328613281,
        -4.676122625824064e-05,
        1.0
      ],
      "name": "Object_9"
    },
    {
      "mesh": 2,
      "name": "tire_tire_side_0"
    },
    {
      "mesh": 3,
      "name": "tire_tire_bk_0"
    },
    {
      "mesh": 4,
      "name": "tire_tire_tred_0"
    },
    {
      "children": [
        14
      ],
      "name": "map",
      "rotation": [
        1.1941843069962488e-07,
        0.7071065902709961,
        -1.1941837385620602e-07,
        0.7071069478988647
      ],
      "scale": [
        0.03937007859349251,
        0.03937007859349251,
        0.03937007859349251
      ],
      "translation": [
        -1.7434358596801758e-06,
        -0.530792236328125,
        0.2262725830078125
      ]
    },
    {
      "mesh": 5,
      "name": "map_r_light_0"
    },
    {
      "children": [
        16
      ],
      "name": "lens",
      "rotation": [
        1.1941843069962488e-07,
        0.7071065902709961,
        -1.1941837385620602e-07,
        0.7071069478988647
      ],
      "scale": [
        0.03937007859349251,
        0.03937007859349251,
        0.03937007859349251
      ],
      "translation": [
        -1.7434358596801758e-06,
        -0.530792236328125,
        0.2262725830078125
      ]
    },
    {
      "mesh": 6,
      "name": "lens_f_light_0"
    },
    {
      "children": [
        18
      ],
      "name": "black_gloss",
      "rotation": [
        1.1941843069962488e-07,
        0.7071065902709961,
        -1.1941837385620602e-07,
        0.7071069478988647
      ],
      "scale": [
        0.03937007859349251,
        0.03937007859349251,
        0.03937007859349251
      ],
      "translation": [
        -1.7434358596801758e-06,
        -0.530792236328125,
        0.2262725830078125
      ]
    },
    {
      "mesh": 7,
      "name": "black_gloss_black_gloss_0"
    },
    {
      "children": [
        20
      ],
      "name": "black_mat",
      "rotation": [
        1.1941843069962488e-07,
        0.7071065902709961,
        -1.1941837385620602e-07,
        0.7071069478988647
      ],
      "scale": [
        0.03937007859349251,
        0.03937007859349251,
        0.03937007859349251
      ],
      "translation": [
        -1.7434358596801758e-06,
        -0.530792236328125,
        0.2262725830078125
      ]
    },
    {
      "mesh": 8,
      "name": "black_mat_black_0"
    },
    {
      "children": [
        22
      ],
      "name": "window",
      "rotation": [
        1.1941843069962488e-07,
        0.7071065902709961,
        -1.1941837385620602e-07,
        0.7071069478988647
      ],
      "scale": [
        0.03937007859349251,
        0.03937007859349251,
        0.03937007859349251
      ],
      "translation": [
        -1.7434358596801758e-06,
        -0.530792236328125,
        0.2262725830078125
      ]
    },
    {
      "mesh": 9,
      "name": "window_window_0"
    },
    {
      "children": [
        24
      ],
      "name": "silver_env",
      "rotation": [
        1.1941843069962488e-07,
        0.7071065902709961,
        -1.1941837385620602e-07,
        0.7071069478988647
      ],
      "scale": [
        0.03937007859349251,
        0.03937007859349251,
        0.03937007859349251
      ],
      "translation": [
        -1.7434358596801758e-06,
        -0.530792236328125,
        0.2262725830078125
      ]
    },
    {
      "mesh": 10,
      "name": "silver_env_chrom_0"
    },
    {
      "children": [
        26
      ],
      "name": "body",
      "rotation": [
        1.1941843069962488e-07,
        0.7071065902709961,
        -1.1941837385620602e-07,
        0.7071069478988647
      ],
      "scale": [
        0.03937007859349251,
        0.03937007859349251,
        0.03937007859349251
      ],
      "translation": [
        -1.7434358596801758e-06,
        -0.530792236328125,
        0.2262725830078125
      ]
    },
    {
      "mesh": 11,
      "name": "body_body_0"
    }
  ],
  "samplers": [
    {
      "magFilter": 9729,
      "minFilter": 9987,
      "wrapS": 10497,
      "wrapT": 10497
    },
    {
      "magFilter": 9729,
      "minFilter": 9729,
      "wrapS": 10497,
      "wrapT": 10497
    }
  ],
  "scene": 0,
  "scenes": [
    {
      "name": "Sketchfab_Scene",
      "nodes": [
        0
      ]
    }
  ],
  "textures": [
    {
      "sampler": 0,
      "source": 0
    },
    {
      "sampler": 0,
      "source": 1
    },
    {
      "sampler": 1,
      "source": 2
    },
    {
      "sampler": 0,
      "source": 2
    },
    {
      "sampler": 0,
      "source": 3
    }
  ]
}
